<?xml version="1.0" encoding="utf-8"?>
<!-- Generator: Adobe Illustrator 24.0.1, SVG Export Plug-In . SVG Version: 6.00 Build 0)  -->
<svg version="1.1" id="Layer_1" xmlns="http://www.w3.org/2000/svg" xmlns:xlink="http://www.w3.org/1999/xlink" x="0px" y="0px"
	 viewBox="0 0 203.13 68.37" style="enable-background:new 0 0 203.13 68.37;" xml:space="preserve">
<style type="text/css">
	.st0{fill:#FFFFFF;}
</style>
<g>
	<g>
		<path class="st0" d="M25.23,32.04l0.01,0c0.32,0,0.64-0.01,0.96-0.03c2.38-0.13,4.63-0.74,6.66-1.74
			c0.71-0.35,1.39-0.74,2.04-1.18c2.76-1.86,4.94-4.5,6.26-7.6c0.57-1.35,0.97-2.78,1.18-4.27c0.11-0.8,0.17-1.62,0.17-2.45
			c0-0.39-0.01-0.77-0.04-1.15c-1.14-0.31-2.33-0.52-3.55-0.59C38.58,13.02,38.23,13,37.87,13c-3.57,0-6.9,1.09-9.66,2.95
			c-2.76,1.86-4.94,4.5-6.26,7.6c-0.06,0.15-0.12,0.29-0.18,0.44h3.81c0.25-0.5,0.54-0.97,0.85-1.43c1.49-2.2,3.6-3.95,6.07-5
			c1.65-0.7,3.46-1.08,5.37-1.08c0.36,0,0.71,0.01,1.06,0.04c-0.28,2.19-1.06,4.22-2.24,5.96c-1.49,2.2-3.6,3.95-6.07,5
			c-1.36,0.58-2.84,0.94-4.39,1.05c-0.32,0.02-0.65,0.04-0.98,0.04l-0.01,0v0h-9.68V13h-3.48v15.56v3.48L25.23,32.04L25.23,32.04z"
			/>
		<path class="st0" d="M41.16,47.06c-1.31-3.1-3.5-5.74-6.26-7.6c-0.65-0.44-1.33-0.83-2.04-1.18c-2.03-1-4.28-1.61-6.66-1.74
			c-0.32-0.02-0.64-0.03-0.96-0.03l-0.01,0v0H12.07v0v3.48v15.56h3.48V39.99h9.68v0l0.01,0c0.33,0,0.66,0.01,0.98,0.04
			c1.55,0.11,3.02,0.47,4.39,1.05c2.47,1.05,4.58,2.8,6.07,5c1.18,1.75,1.97,3.77,2.24,5.96c-0.35,0.03-0.7,0.04-1.06,0.04
			c-1.91,0-3.72-0.39-5.37-1.08c-2.47-1.05-4.58-2.8-6.07-5c-0.31-0.46-0.59-0.94-0.85-1.43h-3.81c0.06,0.15,0.12,0.3,0.18,0.44
			c1.31,3.1,3.5,5.74,6.26,7.6c2.75,1.86,6.09,2.95,9.66,2.95c0.36,0,0.71-0.01,1.06-0.03c1.22-0.07,2.41-0.27,3.55-0.59
			c0.02-0.38,0.04-0.76,0.04-1.15c0-0.83-0.06-1.65-0.17-2.45C42.13,49.84,41.73,48.41,41.16,47.06z"/>
		<path class="st0" d="M49.55,3.66v61.23H3.74V3.66H49.55 M53.03,0.19h-3.48H3.74H0.27v3.48v61.23v3.48h3.48h45.81h3.48v-3.48V3.66
			V0.19z"/>
	</g>
	<g>
		<path class="st0" d="M197.42,37.16h-4.52l2.3-6.61L197.42,37.16z M203.13,43.37l-6.64-18.18h-2.78l-6.61,18.18h3.7l1.1-3.22h6.46
			l1.07,3.22H203.13z M182.99,43.37l-6.46-10.95l6.03-7.23h-4.32l-6.41,7.92v-7.92h-3.55v18.18h3.55V37.9l2.35-2.81l4.67,8.27
			H182.99z M157.78,34.28c0,3.5-0.2,4.34-0.89,5.11c-0.51,0.59-1.3,0.97-2.27,0.97c-0.97,0-1.79-0.38-2.3-0.97
			c-0.69-0.77-0.87-1.61-0.87-5.11c0-3.5,0.18-4.34,0.87-5.11c0.51-0.59,1.33-0.97,2.3-0.97c0.97,0,1.76,0.38,2.27,0.97
			C157.58,29.94,157.78,30.78,157.78,34.28z M161.33,34.28c0-3.14,0.03-5.41-1.81-7.25c-1.28-1.28-2.83-1.99-4.9-1.99
			c-2.07,0-3.65,0.71-4.93,1.99c-1.84,1.84-1.79,4.11-1.79,7.25c0,3.14-0.05,5.41,1.79,7.25c1.28,1.28,2.86,1.99,4.93,1.99
			c2.07,0,3.63-0.72,4.9-1.99C161.36,39.69,161.33,37.42,161.33,34.28z M142.31,28.35v-3.17h-13.05v3.17h4.75v15.01h3.55V28.35
			H142.31z M122.54,43.37V25.19h-3.55v11.13l-7.2-11.13h-3.17v18.18h3.55V32.21l7.2,11.16H122.54z M96.31,37.16h-4.52l2.3-6.61
			L96.31,37.16z M102.03,43.37L95.4,25.19h-2.78L86,43.37h3.7l1.1-3.22h6.46l1.07,3.22H102.03z M81.89,43.37l-6.46-10.95l6.03-7.23
			h-4.32l-6.41,7.92v-7.92h-3.55v18.18h3.55V37.9l2.35-2.81l4.67,8.27H81.89z"/>
	</g>
</g>
</svg>
